PathFileType	4	(X/Y/Z)	output.trc
DataRate	CameraRate	NumFrames	NumMarkers	Units	OrigDataRate	OrigDataStartFrame	OrigNumFrames
100	100	12	23	m	100	1733	4621
Frame#	Time	C7			T8			EL			EM			US			RS			AA			Fore_Clus_1			Fore_Clus_2			Fore_Clus_3			Fore_Clus_4			Hum_Clus_1			Hum_Clus_2			Hum_Clus_3			Hum_Clus_4			Thor_Clus_1			Thor_Clus_2			Thor_Clus_3			Thor_Clus_4			IJ			PX			GH			Thor_Clus_5		
		X1	Y1	Z1	X2	Y2	Z2	X3	Y3	Z3	X4	Y4	Z4	X5	Y5	Z5	X6	Y6	Z6	X7	Y7	Z7	X8	Y8	Z8	X9	Y9	Z9	X10	Y10	Z10	X11	Y11	Z11	X12	Y12	Z12	X13	Y13	Z13	X14	Y14	Z14	X15	Y15	Z15	X16	Y16	Z16	X17	Y17	Z17	X18	Y18	Z18	X19	Y19	Z19	X20	Y20	Z20	X21	Y21	Z21	X22	Y22	Z22	X23	Y23	Z23
1732	17.320000	-0.067247	1.440390	-0.124951	-0.065863	1.213725	-0.110632	-0.219569	1.217061	0.222549	-0.234555	1.156022	0.197891	-0.065185	1.047233	0.354055	-0.078766	1.012015	0.323814	-0.191520	1.358815	0.006376	-0.065144	1.086486	0.306582	-0.033520	1.052933	0.336101	-0.040740	1.031335	0.319044	-0.076463	1.052832	0.278794	-0.169977	1.307958	0.170937	-0.225968	1.318311	0.150718	-0.213582	1.362038	0.106380	-0.155705	1.352729	0.113649	0.060290	1.332123	-0.001413	0.022468	1.287893	0.059809	0.023106	1.332549	0.023124	0.076183	1.287011	0.023891	-0.006788	1.361248	-0.045372	0.030325	1.156625	0.037436	-0.154917	1.341258	-0.004748	0.015233	1.307775	0.048259
1733	17.330000	-0.067258	1.440373	-0.124927	-0.065918	1.213712	-0.110529	-0.219030	1.217307	0.222836	-0.234062	1.156228	0.198307	-0.064934	1.047339	0.354649	-0.078655	1.012053	0.324551	-0.191497	1.358871	0.006478	-0.064778	1.086533	0.307113	-0.033327	1.052872	0.336780	-0.040502	1.031325	0.319718	-0.076194	1.052771	0.279401	-0.169618	1.308146	0.170980	-0.225615	1.318414	0.150866	-0.213387	1.362057	0.106415	-0.155515	1.352809	0.113580	0.060293	1.332070	-0.001403	0.022501	1.287920	0.059866	0.023185	1.332575	0.023160	0.076205	1.287005	0.023928	-0.006785	1.361246	-0.045344	0.030317	1.156644	0.037521	-0.154879	1.341153	-0.004794	0.015268	1.307799	0.048317
1734	17.340000	-0.067284	1.440348	-0.124910	-0.065977	1.213692	-0.110432	-0.218523	1.217506	0.223088	-0.233554	1.156378	0.198678	-0.064674	1.047511	0.355298	-0.078493	1.012151	0.325332	-0.191491	1.358913	0.006567	-0.064480	1.086555	0.307667	-0.032987	1.052897	0.337349	-0.040190	1.031340	0.320411	-0.075918	1.052748	0.280069	-0.169295	1.308328	0.171032	-0.225350	1.318450	0.150961	-0.213227	1.362050	0.106406	-0.155399	1.352905	0.113495	0.060256	1.332043	-0.001404	0.022499	1.287936	0.059920	0.023149	1.332555	0.023180	0.076191	1.287008	0.023963	-0.006796	1.361239	-0.045319	0.030299	1.156660	0.037605	-0.154852	1.341049	-0.004841	0.015257	1.307817	0.048356
1735	17.350000	-0.067323	1.440314	-0.124899	-0.066039	1.213662	-0.110341	-0.218043	1.217664	0.223311	-0.233037	1.156484	0.199010	-0.064412	1.047734	0.355991	-0.078297	1.012297	0.326146	-0.191502	1.358941	0.006643	-0.064144	1.086614	0.308198	-0.032835	1.052922	0.338120	-0.040041	1.031295	0.321134	-0.075772	1.052770	0.280781	-0.169040	1.308526	0.171065	-0.225100	1.318478	0.151026	-0.213148	1.362019	0.106354	-0.155320	1.353015	0.113398	0.060229	1.332041	-0.001375	0.022477	1.287952	0.059950	0.023134	1.332548	0.023194	0.076162	1.286998	0.024001	-0.006822	1.361226	-0.045298	0.030273	1.156671	0.037689	-0.154835	1.340950	-0.004886	0.015238	1.307808	0.048372
1736	17.360000	-0.067378	1.440263	-0.124898	-0.066100	1.213617	-0.110255	-0.217592	1.217791	0.223508	-0.232519	1.156554	0.199308	-0.064155	1.047986	0.356712	-0.078079	1.012476	0.326972	-0.191530	1.358944	0.006702	-0.063836	1.086670	0.308832	-0.032608	1.053014	0.338865	-0.040022	1.031342	0.322047	-0.075431	1.052768	0.281426	-0.168843	1.308730	0.171101	-0.224904	1.318482	0.151084	-0.213116	1.361984	0.106306	-0.155277	1.353125	0.113346	0.060141	1.331999	-0.001388	0.022431	1.287967	0.059998	0.023049	1.332525	0.023194	0.076100	1.287011	0.024023	-0.006862	1.361202	-0.045281	0.030243	1.156677	0.037774	-0.154825	1.340861	-0.004927	0.015192	1.307819	0.048422
1737	17.370000	-0.067443	1.440206	-0.124900	-0.066163	1.213565	-0.110178	-0.217160	1.217890	0.223681	-0.232002	1.156597	0.199572	-0.063899	1.048275	0.357452	-0.077845	1.012692	0.327810	-0.191571	1.358934	0.006752	-0.063461	1.086789	0.309547	-0.032317	1.053146	0.339626	-0.039591	1.031400	0.322969	-0.075079	1.052833	0.282168	-0.168679	1.308892	0.171127	-0.224716	1.318487	0.151142	-0.213092	1.361931	0.106256	-0.155224	1.353246	0.113276	0.060111	1.332011	-0.001345	0.022382	1.287986	0.060021	0.022987	1.332535	0.023223	0.076042	1.287017	0.024046	-0.006913	1.361173	-0.045267	0.030207	1.156677	0.037853	-0.154825	1.340785	-0.004967	0.015144	1.307824	0.048419
1738	17.380000	-0.067519	1.440135	-0.124909	-0.066223	1.213499	-0.110107	-0.216753	1.217971	0.223835	-0.231498	1.156623	0.199807	-0.063651	1.048580	0.358192	-0.077602	1.012930	0.328633	-0.191624	1.358902	0.006789	-0.063171	1.086884	0.310208	-0.032102	1.053343	0.340362	-0.039491	1.031676	0.323634	-0.074756	1.052927	0.282886	-0.168486	1.309036	0.171148	-0.224556	1.318482	0.151204	-0.213073	1.361886	0.106239	-0.155157	1.353340	0.113211	0.060045	1.332013	-0.001343	0.022322	1.287989	0.060031	0.022808	1.332457	0.023216	0.075991	1.287009	0.024071	-0.006973	1.361133	-0.045256	0.030171	1.156669	0.037930	-0.154830	1.340724	-0.005001	0.015085	1.307828	0.048435
1739	17.390000	-0.067600	1.440059	-0.124918	-0.066282	1.213428	-0.110045	-0.216367	1.218037	0.223971	-0.231012	1.156636	0.200015	-0.063407	1.048907	0.358923	-0.077351	1.013195	0.329437	-0.191685	1.358856	0.006817	-0.062886	1.086997	0.310744	-0.031923	1.053501	0.341108	-0.039351	1.031659	0.324404	-0.074576	1.052957	0.283576	-0.168284	1.309166	0.171160	-0.224370	1.318492	0.151255	-0.213009	1.361856	0.106238	-0.155098	1.353406	0.113155	0.059999	1.332003	-0.001318	0.022287	1.287994	0.060048	0.022750	1.332459	0.023221	0.075926	1.287006	0.024103	-0.007039	1.361088	-0.045247	0.030132	1.156654	0.038001	-0.154840	1.340679	-0.005030	0.015008	1.307805	0.048457
1740	17.400000	-0.067684	1.439982	-0.124925	-0.066340	1.213355	-0.109992	-0.216006	1.218092	0.224092	-0.230552	1.156644	0.200198	-0.063161	1.049258	0.359631	-0.077091	1.013487	0.330209	-0.191750	1.358800	0.006841	-0.062580	1.087108	0.311248	-0.031683	1.053699	0.341724	-0.039185	1.031737	0.325111	-0.074376	1.052989	0.284237	-0.168093	1.309264	0.171166	-0.224215	1.318492	0.151340	-0.212931	1.361829	0.106254	-0.154900	1.353514	0.113160	0.059930	1.331964	-0.001352	0.022210	1.288002	0.060114	0.022680	1.332440	0.023229	0.075878	1.286991	0.024114	-0.007109	1.361038	-0.045236	0.030090	1.156630	0.038062	-0.154851	1.340650	-0.005055	0.014963	1.307789	0.048481
1741	17.410000	-0.067768	1.439901	-0.124930	-0.066395	1.213278	-0.109947	-0.215674	1.218143	0.224200	-0.230128	1.156652	0.200359	-0.062913	1.049625	0.360303	-0.076820	1.013802	0.330933	-0.191819	1.358733	0.006858	-0.062251	1.087263	0.311744	-0.031332	1.053970	0.342344	-0.038861	1.031951	0.325745	-0.074088	1.053087	0.284775	-0.167881	1.309334	0.171170	-0.223998	1.318507	0.151418	-0.212826	1.361829	0.106284	-0.154863	1.353516	0.113078	0.059910	1.331950	-0.001316	0.022178	1.287998	0.060139	0.022669	1.332444	0.023243	0.075822	1.286975	0.024128	-0.007180	1.360983	-0.045226	0.030048	1.156598	0.038116	-0.154860	1.340636	-0.005072	0.014922	1.307777	0.048496
1742	17.420000	-0.067845	1.439831	-0.124924	-0.066453	1.213210	-0.109912	-0.215368	1.218191	0.224295	-0.229739	1.156663	0.200501	-0.062651	1.050027	0.360934	-0.076531	1.014153	0.331614	-0.191886	1.358670	0.006878	-0.061866	1.087533	0.312291	-0.031041	1.054285	0.342930	-0.038515	1.032308	0.326419	-0.073567	1.053351	0.285339	-0.167622	1.309368	0.171164	-0.223804	1.318516	0.151499	-0.212673	1.361870	0.106353	-0.154726	1.353531	0.113041	0.059880	1.331931	-0.001314	0.022129	1.287958	0.060149	0.022594	1.332399	0.023258	0.075770	1.286934	0.024138	-0.007248	1.360929	-0.045212	0.029999	1.156558	0.038156	-0.154868	1.340635	-0.005086	0.014872	1.307738	0.048501
1743	17.430000	-0.067916	1.439767	-0.124911	-0.066509	1.213147	-0.109885	-0.215095	1.218242	0.224382	-0.229393	1.156681	0.200628	-0.062376	1.050452	0.361513	-0.076221	1.014531	0.332234	-0.191951	1.358605	0.006897	-0.061505	1.087820	0.312792	-0.030768	1.054601	0.343596	-0.038235	1.032678	0.326966	-0.073229	1.053561	0.285857	-0.167442	1.309401	0.171165	-0.223600	1.318526	0.151569	-0.212528	1.361887	0.106417	-0.154516	1.353641	0.113058	0.059842	1.331914	-0.001291	0.022087	1.287921	0.060150	0.022537	1.332341	0.023288	0.075724	1.286883	0.024139	-0.007314	1.360873	-0.045194	0.029948	1.156510	0.038186	-0.154869	1.340644	-0.005093	0.014837	1.307695	0.048522
